<svg width="106" height="107" viewBox="0 0 106 107" fill="none" xmlns="http://www.w3.org/2000/svg">
<path d="M105.399 53.4328V40.6268H84.4561C84.4102 41.2242 84.3481 41.8499 84.2726 42.4533C84.1794 43.4598 84.0418 44.4664 83.8731 45.458C83.7963 46.015 83.7045 46.5572 83.5965 47.1008C83.5195 47.4577 83.4589 47.8131 83.3819 48.17C83.2591 48.8361 83.1052 49.5022 82.9381 50.1667C82.4335 52.3124 81.8086 54.4276 81.0664 56.5018C80.7912 57.2753 80.4998 58.0494 80.192 58.824C79.9923 59.3198 79.7777 59.8156 79.5632 60.3174C78.6894 62.347 77.7061 64.3268 76.6174 66.2477H76.863C75.9056 68.0573 74.7477 69.7513 73.4112 71.2969C73.4112 71.3119 73.395 71.3283 73.3802 71.3432C72.414 72.7217 71.3857 74.0538 70.3116 75.3545C69.2522 76.6239 68.1485 77.8485 66.9826 79.0253C66.3997 79.6227 65.799 80.2201 65.1864 80.7741C65.1697 80.8071 65.1434 80.8343 65.111 80.8518C64.5191 81.4103 63.9436 81.936 63.3355 82.4467C62.0764 83.5623 60.7877 84.6002 59.4384 85.5829C58.7326 86.1101 58.0106 86.6059 57.2738 87.1002C56.7071 87.4885 56.1538 87.8469 55.5708 88.2008C55.556 88.2158 55.5412 88.2158 55.525 88.2307C54.9727 88.5881 54.4049 88.9292 53.822 89.2537C52.3336 90.1049 50.7993 90.9099 49.2354 91.6431C48.5755 91.9523 47.9156 92.2629 47.2395 92.5392C45.8901 93.1127 44.5245 93.6398 43.1441 94.1043C42.6529 94.2745 42.1617 94.4283 41.6646 94.5837C40.6836 94.8943 39.6864 95.181 38.6877 95.4349C38.3356 95.529 37.9672 95.6216 37.615 95.6992C36.9551 95.8695 36.3101 96.0084 35.6502 96.1472C34.9296 96.2876 34.2076 96.4265 33.4871 96.5356C32.6896 96.6744 31.8759 96.7984 31.0784 96.891C30.4037 96.9836 29.7468 97.0403 29.0839 97.1075C28.8073 97.1389 28.5469 97.1553 28.2702 97.1702C28.1233 97.1937 27.975 97.2092 27.8263 97.2165C27.4579 97.2479 27.0866 97.2628 26.7211 97.2792C25.7239 97.341 24.7114 97.3718 23.6836 97.3718C29.6047 101.401 36.2797 104.165 43.2983 105.494C50.3168 106.822 57.5303 106.688 64.4955 105.099C64.5251 105.084 64.5709 105.084 64.602 105.069C74.0501 102.878 82.7142 98.0941 89.6376 91.245C96.5609 84.3961 101.474 75.7486 103.834 66.2582C104.881 62.0653 105.407 57.757 105.399 53.4328Z" fill="#01BF71"/>
<path d="M84.4561 40.6267H58.7119C57.0343 40.6083 55.3695 40.9261 53.8143 41.5616C52.259 42.1968 50.8441 43.1374 49.6513 44.3284C48.4585 45.5194 47.5116 46.9374 46.8653 48.5002C46.219 50.0631 45.8863 51.7399 45.8863 53.4334C45.8863 55.1269 46.219 56.8037 46.8653 58.3666C47.5116 59.9294 48.4585 61.3474 49.6513 62.5384C50.8441 63.7294 52.259 64.6698 53.8143 65.3052C55.3695 65.9407 57.0343 66.2583 58.7119 66.2401H76.6145C81.0654 58.3894 83.7431 49.6433 84.4561 40.6267Z" fill="#01D57E"/>
<path d="M73.3788 71.3361C70.8426 74.2966 67.7046 76.6713 64.1781 78.2986C60.6516 79.926 56.8193 80.7678 52.9418 80.7671C51.1443 80.766 49.3513 80.59 47.5873 80.2413C45.837 79.8784 44.1261 79.3443 42.4785 78.6463C37.6204 76.5779 33.4625 73.1294 30.5104 68.7198C30.4956 68.7198 30.4956 68.7196 30.4956 68.7032C29.8357 67.9908 29.1906 67.2488 28.5722 66.4886C28.5708 66.4768 28.5649 66.4661 28.5559 66.4586C22.7392 59.3789 18.7236 50.9726 16.8583 41.9698C14.993 32.9671 15.3343 23.6409 17.8528 14.8018C17.9135 14.5031 18.0008 14.2043 18.0984 13.9056C8.07315 22.8919 1.84382 35.4165 0.693545 48.8999C-0.45673 62.3832 3.55965 75.7984 11.9154 86.3822C15.2668 90.6209 19.2346 94.3232 23.6837 97.3632C36.5335 97.3396 49.0465 93.2142 59.4326 85.5772C64.8078 81.6156 69.5166 76.8072 73.3788 71.3361Z" fill="#04A261"/>
<path d="M104.111 0.499707H80.3758C80.3758 0.501797 80.3753 0.503895 80.3746 0.505837C80.3737 0.507778 80.3725 0.509413 80.3709 0.510907C80.3694 0.512251 80.3676 0.513454 80.3656 0.514051C80.3636 0.514649 80.3616 0.514943 80.3595 0.514644V0.531074C80.0991 0.9328 79.8535 1.33617 79.5768 1.72595C78.985 2.67128 78.3503 3.58525 77.7052 4.48278C76.0809 6.73365 74.313 8.87519 72.4128 10.8938C72.0592 11.2806 71.6908 11.6691 71.3224 12.0558C71.2617 12.1171 71.1848 12.1797 71.1227 12.2409C70.5871 12.7994 70.05 13.3252 69.4952 13.836C68.9122 14.3945 68.3115 14.9365 67.7197 15.4786C67.2137 15.9117 66.6929 16.3612 66.1706 16.7943C65.8333 17.0736 65.4797 17.3513 65.1275 17.6306C64.8509 17.8636 64.5594 18.0788 64.2827 18.2968C63.8536 18.6224 63.4246 18.9478 62.994 19.2569C62.8461 19.3659 62.6981 19.4735 62.565 19.566C62.0131 19.9693 61.4449 20.3726 60.862 20.743C60.7942 20.798 60.7225 20.8478 60.6475 20.8922C60.0187 21.3103 59.3884 21.7137 58.7448 22.1005C58.1766 22.4724 57.61 22.8127 57.0255 23.1219C56.811 23.2622 56.5817 23.3862 56.3509 23.5101C55.799 23.8342 55.2471 24.1448 54.6938 24.4062C54.6331 24.4375 54.5872 24.4689 54.5251 24.4988C53.8815 24.8557 53.2216 25.1813 52.5617 25.4904C52.5307 25.4904 52.5159 25.5053 52.4848 25.5218C52.0409 25.7532 51.5971 25.955 51.1532 26.1566C51.745 26.1103 52.3502 26.0954 52.9479 26.0954L78.7364 26.0954C80.4629 26.094 82.185 25.9174 83.8764 25.5681C89.5926 24.3792 94.7272 21.2358 98.4137 16.6688C102.1 12.1017 104.112 6.3906 104.111 0.499707Z" fill="#234235"/>
<path d="M80.3755 0.501047H52.9417C40.7287 0.503586 28.9008 4.81476 19.5039 12.6888C19.0289 13.0755 18.5525 13.4789 18.0924 13.8971C18.0113 14.1417 17.9446 14.3911 17.8926 14.6438C17.8641 14.6787 17.848 14.7223 17.8468 14.7677V14.7974C17.6781 15.3709 17.5242 15.9593 17.3704 16.5477C17.3556 16.6403 17.3245 16.7493 17.2949 16.8583C17.1558 17.4154 17.033 17.989 16.9102 18.561C16.7268 19.3824 16.5729 20.2037 16.4353 21.04C16.3583 21.4881 16.2977 21.9361 16.2207 22.3841C16.1438 22.9262 16.0831 23.4833 16.021 24.0403C15.9589 24.5525 15.913 25.0631 15.8731 25.5739C15.8583 25.8367 15.8272 26.1011 15.8124 26.3788C15.7207 27.7109 15.6733 29.0581 15.6733 30.4112C15.6733 30.7532 15.6733 31.0937 15.6896 31.4177C15.6896 31.7164 15.7044 31.9912 15.7207 32.2854C15.7099 32.4458 15.7147 32.6068 15.7355 32.7663C15.7355 32.9828 15.7502 33.1994 15.7665 33.4159C15.7813 33.9894 15.8272 34.5614 15.8731 35.1348C15.8893 35.3678 15.9041 35.5993 15.9352 35.8322C15.9959 36.5595 16.0728 37.2719 16.1808 38.0007C16.2415 38.4487 16.3036 38.9131 16.3791 39.3627C16.3796 39.4475 16.3958 39.5316 16.4264 39.6106C16.4723 39.9511 16.5329 40.3078 16.5951 40.6558C16.8244 41.9715 17.1159 43.2888 17.4532 44.5732C17.5464 44.9614 17.6529 45.3482 17.761 45.7201C18.3435 47.8068 19.0399 49.8594 19.8471 51.8683C20.0779 52.4403 20.3235 52.9988 20.5869 53.5559C21.124 54.7954 21.7217 56.0036 22.3624 57.1953C22.608 57.6911 22.8832 58.1706 23.1598 58.6515C23.9425 60.0299 24.7873 61.3768 25.6913 62.6836C26.1515 63.3347 26.6116 63.9845 27.088 64.6251C27.5482 65.23 28.0231 65.8332 28.4995 66.4171C28.5238 66.4337 28.5444 66.4552 28.5602 66.48C28.683 66.6502 28.8221 66.804 28.9597 66.9743C29.4509 67.5716 29.9717 68.1526 30.494 68.7246C27.4677 64.2185 25.8532 58.8982 25.86 53.4543V53.4394C25.86 49.8546 26.5606 46.3049 27.9216 42.9937C29.2826 39.6825 31.2775 36.675 33.7919 34.1432C38.4307 29.4564 44.5969 26.6281 51.1455 26.1833C51.5894 25.9817 52.0332 25.7801 52.4771 25.5486C52.5082 25.5322 52.523 25.5173 52.554 25.5173C53.2139 25.1917 53.8738 24.8676 54.5174 24.5257C54.5795 24.4958 54.6254 24.4644 54.6861 24.4331C55.2394 24.1553 55.7913 23.8447 56.3432 23.537C56.574 23.4131 56.8033 23.2891 57.0178 23.1487C57.6097 22.8247 58.1689 22.4842 58.7371 22.1272C59.3807 21.7404 60.011 21.3371 60.6398 20.9189C60.7148 20.8746 60.7865 20.8247 60.8543 20.7697C61.4225 20.3994 61.9891 20.0109 62.5573 19.5928C62.6949 19.5002 62.8339 19.3928 62.9863 19.2838C63.4169 18.9747 63.846 18.6491 64.275 18.3235C64.5517 18.107 64.8432 17.8904 65.1198 17.6575C65.472 17.3946 65.8256 17.1154 66.1629 16.8212C66.6852 16.3881 67.1986 15.9384 67.712 15.5053C68.3038 14.9632 68.909 14.4213 69.4875 13.8627C70.0408 13.352 70.5779 12.8263 71.115 12.2678C71.1771 12.2065 71.2541 12.1437 71.3147 12.0824C71.6831 11.6956 72.0545 11.3075 72.4051 10.9207C74.3053 8.90192 76.0732 6.76022 77.6975 4.50951C78.3574 3.61347 78.9862 2.69786 79.5854 1.75253C79.8458 1.36574 80.1062 0.962661 80.3518 0.557947V0.541518C80.3571 0.544654 80.3633 0.545552 80.3694 0.544058C80.3753 0.542565 80.3805 0.53869 80.3836 0.533314C80.3867 0.527938 80.3876 0.521513 80.3861 0.51554C80.3846 0.509417 80.3808 0.504332 80.3755 0.501047Z" fill="#05643D"/>
<g style="mix-blend-mode:multiply" opacity="0.1">
<g style="mix-blend-mode:multiply">
<path d="M52.942 80.7672C51.1445 80.7662 49.3514 80.5901 47.5875 80.2416C38.3211 84.0049 26.6445 86.4213 11.9155 86.3735C15.267 90.6122 19.2347 94.3144 23.6839 97.3545C36.5336 97.3308 49.0466 93.2054 59.4328 85.5685C64.8072 81.6097 69.516 76.8042 73.379 71.3364C70.8427 74.2968 67.7048 76.6714 64.1783 78.2988C60.6518 79.9262 56.8194 80.768 52.942 80.7672Z" fill="black"/>
</g>
</g>
<g style="mix-blend-mode:multiply" opacity="0.16">
<g style="mix-blend-mode:multiply">
<path d="M84.4562 40.6274H82.1244C79.9072 50.2511 75.1698 59.097 68.4075 66.2409H76.6161C81.0664 58.39 83.7435 49.6439 84.4562 40.6274Z" fill="black"/>
</g>
</g>
<g style="mix-blend-mode:multiply" opacity="0.1">
<g style="mix-blend-mode:multiply">
<path d="M33.2875 4.37211C28.2945 6.40419 23.646 9.21016 19.5099 12.6888C19.035 13.0755 18.5586 13.4789 18.0984 13.8971C18.0174 14.1417 17.9506 14.3911 17.8987 14.6438C17.8701 14.6787 17.854 14.7223 17.8528 14.7677V14.7974C17.6842 15.3709 17.5303 15.9593 17.3764 16.5477C17.3616 16.6403 17.3306 16.7493 17.301 16.8583C17.1619 17.4154 17.0391 17.989 16.9163 18.561C16.7328 19.3824 16.5789 20.2037 16.4413 21.04C16.3644 21.4881 16.3037 21.9361 16.2268 22.3841C16.1499 22.9262 16.0892 23.4833 16.0271 24.0403C15.9649 24.5525 15.9191 25.0631 15.8791 25.5739C15.8643 25.8367 15.8332 26.1011 15.8185 26.3788C15.7267 27.7109 15.6794 29.0581 15.6794 30.4112C15.6794 30.7532 15.6794 31.0937 15.6957 31.4177C15.6957 31.7164 15.7104 31.9912 15.7267 32.2854C15.7159 32.4458 15.721 32.6068 15.7415 32.7663C15.7415 32.9828 15.7563 33.1994 15.7726 33.4159C15.7874 33.9894 15.8333 34.5614 15.8791 35.1348C15.8954 35.3678 15.9102 35.5993 15.9413 35.8322C16.0019 36.5595 16.0789 37.2719 16.1869 38.0007C16.2475 38.4487 16.3097 38.9131 16.3851 39.3627C16.3859 39.4475 16.4018 39.5316 16.4325 39.6106C16.4783 39.9511 16.539 40.3078 16.6011 40.6558C16.8305 41.9715 17.1219 43.2888 17.4593 44.5732C17.5525 44.9614 17.659 45.3482 17.767 45.7201C18.3495 47.8068 19.0461 49.8594 19.8532 51.8683C20.084 52.4403 20.3296 52.9988 20.593 53.5559C21.13 54.7954 21.7278 56.0036 22.3684 57.1953C22.614 57.6911 22.8892 58.1706 23.1659 58.6515C23.9486 60.0299 24.7934 61.3768 25.6974 62.6836C26.1575 63.3347 26.6177 63.9845 27.0941 64.6251C27.5542 65.23 28.0292 65.8332 28.5056 66.4171C28.5299 66.4337 28.5504 66.4552 28.5662 66.48C28.6891 66.6502 28.8281 66.804 28.9657 66.9743C29.4569 67.5716 29.9777 68.1526 30.5 68.7246C27.4739 64.2185 25.8593 58.8982 25.8661 53.4543V53.4394C23.2029 41.9177 22.8892 25.1766 32.8777 5.24561C32.996 4.94543 33.1351 4.6469 33.2875 4.37211Z" fill="black"/>
</g>
</g>
<g style="mix-blend-mode:multiply" opacity="0.1">
<g style="mix-blend-mode:multiply">
<path d="M95.9791 0.499707H80.3758C80.3758 0.501797 80.3753 0.503895 80.3746 0.505837C80.3737 0.507778 80.3725 0.509413 80.3709 0.510907C80.3694 0.512251 80.3676 0.513454 80.3656 0.514051C80.3636 0.514649 80.3616 0.514943 80.3595 0.514644V0.531074C80.0991 0.9328 79.8535 1.33617 79.5768 1.72595C78.985 2.67128 78.3503 3.58525 77.7052 4.48278C76.0809 6.73365 74.313 8.87519 72.4128 10.8938C72.0592 11.2806 71.6908 11.6691 71.3224 12.0558C71.2617 12.1171 71.1848 12.1797 71.1227 12.2409C70.5871 12.7994 70.05 13.3252 69.4952 13.836C68.9122 14.3945 68.3115 14.9365 67.7197 15.4786C67.2137 15.9117 66.6929 16.3612 66.1706 16.7943C65.8333 17.0736 65.4797 17.3513 65.1275 17.6306C64.8509 17.8636 64.5594 18.0788 64.2827 18.2968C63.8536 18.6224 63.4246 18.9478 62.994 19.2569C62.8461 19.3659 62.6981 19.4735 62.565 19.566C62.0131 19.9693 61.4449 20.3726 60.862 20.743C60.7942 20.798 60.7225 20.8478 60.6475 20.8922C60.0187 21.3103 59.3884 21.7137 58.7448 22.1005C58.1766 22.4724 57.61 22.8127 57.0255 23.1219C56.811 23.2622 56.5817 23.3862 56.3509 23.5101C55.799 23.8342 55.2471 24.1448 54.6938 24.4062C54.6331 24.4375 54.5872 24.4689 54.5251 24.4988C53.8815 24.8557 53.2216 25.1813 52.5617 25.4904C52.5307 25.4904 52.5159 25.5053 52.4848 25.5218C52.0409 25.7532 51.5971 25.955 51.1532 26.1566C51.745 26.1103 52.3502 26.0954 52.9479 26.0954H59.739C73.1853 20.7812 85.2389 12.4135 94.9656 1.64083C95.3074 1.27345 95.6418 0.886499 95.9791 0.499707Z" fill="black"/>
</g>
</g>
<g style="mix-blend-mode:screen" opacity="0.6">
<g style="mix-blend-mode:screen">
<path d="M70.3027 75.3466C65.0328 81.676 58.5566 86.8718 51.2585 90.6257C43.9605 94.3794 35.9894 96.6145 27.8189 97.1981C28.0483 97.213 28.7688 97.2444 29.8592 97.2758C30.6779 97.2982 31.4972 97.2773 32.3138 97.2131C33.3764 97.181 34.4365 97.0883 35.4889 96.9353C36.0807 96.8726 36.6726 96.7859 37.2999 96.7023C37.9139 96.5784 38.559 96.4544 39.2233 96.3305C40.5431 96.0826 41.9087 95.6958 43.3202 95.294C44.7006 94.8132 46.1742 94.4264 47.5857 93.7917C49.0283 93.2182 50.4398 92.5372 51.8513 91.8502C53.2317 91.0767 54.6284 90.3479 55.917 89.4967C57.2368 88.6917 58.4486 87.7628 59.6292 86.8951C60.7966 85.9812 61.8856 85.0672 62.8665 84.1547C63.8066 83.3089 64.7029 82.4146 65.5519 81.4756C66.3656 80.6228 67.0566 79.8029 67.6543 79.0428C68.1782 78.4132 68.6696 77.7567 69.1265 77.076C69.8189 76.1053 70.2184 75.4855 70.3027 75.3466Z" fill="white"/>
</g>
</g>
<g style="mix-blend-mode:screen" opacity="0.6">
<g style="mix-blend-mode:screen">
<path d="M80.3638 0.531223V0.514793C80.2721 0.608877 79.8726 1.02703 79.26 1.72296C78.5691 2.49804 77.5719 3.61213 76.3897 4.94424C75.7772 5.59537 75.1321 6.28831 74.4412 7.03502C73.7502 7.78172 72.9838 8.50602 72.2485 9.31096C70.6831 10.8596 69.0112 12.486 67.2772 14.0346C65.5431 15.6146 63.7263 17.0856 62.0455 18.4641C61.1578 19.1152 60.3573 19.8081 59.5303 20.4055C58.7032 21.0029 57.9501 21.5823 57.2444 22.1095C55.8166 23.1623 54.6196 24.0151 53.7452 24.6184C53.1016 25.0664 52.6711 25.392 52.4876 25.5324C63.9523 20.0538 73.625 11.3786 80.3638 0.531223Z" fill="white"/>
</g>
</g>
<g style="mix-blend-mode:screen" opacity="0.6">
<g style="mix-blend-mode:screen">
<path d="M15.6733 30.4042C15.6658 25.1253 16.3995 19.872 17.8527 14.801V14.7398C17.8527 14.7398 17.5006 15.5298 16.9931 16.9695C16.2921 18.952 15.7479 20.9873 15.3656 23.0566C14.7963 25.9999 14.5138 28.9926 14.5222 31.9916C14.5102 33.6826 14.5867 35.373 14.7516 37.0558C14.9365 38.7747 15.1821 40.525 15.5342 42.2439C15.8864 43.9628 16.348 45.6668 16.8658 47.3215C17.1057 48.1461 17.3877 48.9577 17.7107 49.7527C18.0066 50.5428 18.3232 51.3178 18.662 52.0765C19.2791 53.5263 19.9807 54.938 20.763 56.3043C21.4357 57.5428 22.1767 58.7425 22.9823 59.8975C23.6444 60.8833 24.356 61.8344 25.1143 62.7469C25.7594 63.5832 26.403 64.2493 26.8898 64.8212C27.8411 65.7979 28.4403 66.3699 28.5469 66.464C20.2069 56.3352 15.6513 43.5744 15.6733 30.4042Z" fill="white"/>
</g>
</g>
<g style="mix-blend-mode:multiply" opacity="0.3">
<g style="mix-blend-mode:multiply">
<path d="M104.111 0.500458H52.9418C40.7289 0.502997 28.9009 4.81417 19.504 12.6882C20.9466 11.6204 22.4039 10.6138 23.9234 9.66849C25.4662 8.70629 27.0583 7.82741 28.6935 7.03561C30.0591 6.35462 31.4558 5.76622 32.8673 5.22411C33.1292 5.11509 33.4044 5.0225 33.6811 4.91348C35.37 4.27609 37.0905 3.72787 38.8358 3.27073C40.5744 2.80628 42.336 2.43442 44.1134 2.15665C45.8888 1.90874 47.6731 1.70877 49.453 1.62962C51.2329 1.55047 53.0128 1.56675 54.8534 1.58318L60.3277 1.64455L71.2675 1.72221H82.2073C86.4585 1.72221 90.7084 1.69623 94.9566 1.64455C97.6582 1.62962 100.358 1.58318 103.042 1.55182L103.028 2.59735L102.798 4.68797L102.391 6.73693L101.825 8.76646L101.073 10.7482L100.153 12.6523L99.0786 14.4802L97.8506 16.2141L96.4998 17.8404L95.0202 19.3741L93.4238 20.7839L91.706 22.0533L89.864 23.1689L87.9406 24.1292L85.9461 24.9341L83.8748 25.5688C89.5912 24.3802 94.7262 21.237 98.413 16.67C102.1 12.1029 104.112 6.39165 104.111 0.500458Z" fill="black"/>
</g>
</g>
<g style="mix-blend-mode:multiply" opacity="0.3">
<g style="mix-blend-mode:multiply">
<path d="M105.399 53.4322V40.6262H87.4022C90.3938 40.8263 93.4017 40.9354 96.3934 41.0743C99.1394 41.1982 101.868 41.2908 104.617 41.3729L104.371 51.1607C104.34 52.9259 104.356 54.6448 104.223 56.3488C104.103 58.0618 103.899 59.7674 103.609 61.4593C103.347 63.1465 102.988 64.8169 102.535 66.4622C102.098 68.1329 101.57 69.7781 100.955 71.3906C100.418 72.9855 99.6661 74.5505 98.99 76.1141C98.1777 77.6164 97.472 79.18 96.5206 80.6048C95.6773 82.0982 94.6638 83.4706 93.6814 84.8804C93.1901 85.5763 92.6235 86.2245 92.1012 86.8935C91.5813 87.5755 91.0231 88.2267 90.4293 88.8439C89.8464 89.4637 89.2782 90.1148 88.6805 90.7181L86.8236 92.5102C86.2318 93.1076 85.535 93.6258 84.8899 94.1978C84.2315 94.7399 83.6012 95.3134 82.8954 95.8092L80.8241 97.3415L78.661 98.7363C77.9404 99.2306 77.1814 99.6323 76.4416 100.052C75.7019 100.472 74.9532 100.935 74.1705 101.292C72.62 102.038 71.0635 102.794 69.4286 103.382C67.8647 104.048 66.2224 104.496 64.6112 105.055C74.0591 102.864 82.7232 98.0801 89.6466 91.2311C96.5699 84.382 101.483 75.7346 103.843 66.2441C104.886 62.0553 105.409 57.7516 105.399 53.4322Z" fill="black"/>
</g>
</g>
</svg>
